<svg width="113" height="23" viewBox="0 0 113 23" fill="none" xmlns="http://www.w3.org/2000/svg">
<path d="M34.392 9.824C34.5627 9.80267 34.7067 9.85067 34.824 9.968C34.9413 10.0747 35 10.208 35 10.368C35 10.5387 34.9413 10.6773 34.824 10.784C34.7067 10.8907 34.5627 10.9387 34.392 10.928L33.96 10.896C33.8747 10.896 33.816 10.928 33.784 10.992L30.776 17.888C30.6693 18.1547 30.4667 18.288 30.168 18.288C29.88 18.288 29.672 18.1547 29.544 17.888L26.424 10.992C26.392 10.928 26.3333 10.896 26.248 10.896L25.816 10.928C25.6453 10.9387 25.5013 10.8907 25.384 10.784C25.2667 10.6773 25.208 10.5387 25.208 10.368C25.208 10.208 25.2667 10.0747 25.384 9.968C25.5013 9.85067 25.6453 9.80267 25.816 9.824C26.0933 9.84533 26.3333 9.86133 26.536 9.872C26.7387 9.88267 26.9413 9.888 27.144 9.888C27.336 9.888 27.5333 9.88267 27.736 9.872C27.9493 9.86133 28.1893 9.84533 28.456 9.824C28.6267 9.80267 28.7707 9.85067 28.888 9.968C29.0053 10.0747 29.064 10.208 29.064 10.368C29.064 10.528 29.0107 10.6613 28.904 10.768C28.7973 10.8747 28.6693 10.928 28.52 10.928C28.424 10.928 28.3173 10.9227 28.2 10.912C28.0933 10.9013 27.9813 10.8907 27.864 10.88H27.832C27.7253 10.88 27.6987 10.9333 27.752 11.04L30.088 16.304C30.12 16.368 30.152 16.4 30.184 16.4C30.2373 16.4 30.2693 16.368 30.28 16.304L32.472 11.04C32.4827 11.0187 32.488 10.992 32.488 10.96C32.488 10.9067 32.456 10.88 32.392 10.88C32.2853 10.88 32.168 10.8907 32.04 10.912C31.9227 10.9227 31.8053 10.928 31.688 10.928C31.5387 10.928 31.4107 10.8747 31.304 10.768C31.1973 10.6613 31.144 10.528 31.144 10.368C31.144 10.208 31.2027 10.0747 31.32 9.968C31.4373 9.85067 31.5813 9.80267 31.752 9.824C32.0293 9.84533 32.2693 9.86133 32.472 9.872C32.6853 9.88267 32.888 9.888 33.08 9.888C33.272 9.888 33.4693 9.88267 33.672 9.872C33.8853 9.86133 34.1253 9.84533 34.392 9.824ZM38.0671 8.416C37.8005 8.416 37.5711 8.32533 37.3791 8.144C37.1978 7.952 37.1071 7.72267 37.1071 7.456C37.1071 7.17867 37.1978 6.94933 37.3791 6.768C37.5711 6.58667 37.8005 6.496 38.0671 6.496C38.3338 6.496 38.5578 6.58667 38.7391 6.768C38.9311 6.94933 39.0271 7.17867 39.0271 7.456C39.0271 7.72267 38.9311 7.952 38.7391 8.144C38.5578 8.32533 38.3338 8.416 38.0671 8.416ZM36.6751 18.288C36.4938 18.2987 36.3338 18.24 36.1951 18.112C36.0671 17.9947 36.0031 17.8453 36.0031 17.664C36.0031 17.4827 36.0671 17.328 36.1951 17.2C36.3338 17.072 36.4938 17.0187 36.6751 17.04C36.7711 17.0507 36.8725 17.0613 36.9791 17.072C37.0965 17.0827 37.2085 17.0933 37.3151 17.104H37.3471C37.4218 17.104 37.4591 17.056 37.4591 16.96V11.136C37.4591 11.0507 37.4218 11.008 37.3471 11.008C37.1125 11.008 36.8885 11.024 36.6751 11.056C36.4938 11.0667 36.3338 11.0133 36.1951 10.896C36.0671 10.768 36.0031 10.6133 36.0031 10.432C36.0031 10.2507 36.0671 10.096 36.1951 9.968C36.3338 9.84 36.4938 9.78667 36.6751 9.808C36.9738 9.82933 37.1818 9.85067 37.2991 9.872C37.4165 9.88267 37.4965 9.888 37.5391 9.888C37.5925 9.888 37.6511 9.888 37.7151 9.888C37.9818 9.888 38.2058 9.984 38.3871 10.176C38.5791 10.3573 38.6751 10.5813 38.6751 10.848V16.96C38.6751 17.056 38.7125 17.104 38.7871 17.104C38.9045 17.104 39.0165 17.0987 39.1231 17.088C39.2405 17.0667 39.3525 17.0507 39.4591 17.04C39.6405 17.0187 39.7951 17.072 39.9231 17.2C40.0511 17.328 40.1151 17.4827 40.1151 17.664C40.1151 17.8453 40.0511 17.9947 39.9231 18.112C39.7951 18.24 39.6405 18.2987 39.4591 18.288C39.2458 18.2667 39.0165 18.2453 38.7711 18.224C38.5258 18.2027 38.2911 18.192 38.0671 18.192C37.8431 18.192 37.6085 18.2027 37.3631 18.224C37.1178 18.2453 36.8885 18.2667 36.6751 18.288ZM48.4468 14.576H42.8468C42.7401 14.576 42.6974 14.6293 42.7188 14.736C42.8148 15.2053 43.0014 15.6213 43.2788 15.984C43.5561 16.3467 43.8974 16.6293 44.3028 16.832C44.7081 17.0347 45.1454 17.136 45.6148 17.136C46.0201 17.136 46.4041 17.0507 46.7668 16.88C47.1401 16.6987 47.4601 16.4587 47.7268 16.16C47.8868 16 48.0574 15.92 48.2388 15.92C48.3561 15.92 48.4681 15.9573 48.5748 16.032C48.7454 16.1493 48.8308 16.3093 48.8308 16.512C48.8308 16.6507 48.7881 16.7627 48.7028 16.848C48.3188 17.296 47.8548 17.648 47.3108 17.904C46.7774 18.1493 46.2121 18.272 45.6148 18.272C44.8468 18.272 44.1481 18.08 43.5188 17.696C42.9001 17.312 42.4041 16.8 42.0308 16.16C41.6681 15.52 41.4868 14.816 41.4868 14.048C41.4868 13.2693 41.6574 12.56 41.9988 11.92C42.3401 11.28 42.8094 10.768 43.4068 10.384C44.0148 10 44.6974 9.808 45.4548 9.808C46.2014 9.808 46.8521 9.968 47.4068 10.288C47.9614 10.608 48.4041 11.056 48.7348 11.632C49.0761 12.1973 49.2841 12.8587 49.3588 13.616C49.3908 13.8827 49.3108 14.112 49.1188 14.304C48.9374 14.4853 48.7134 14.576 48.4468 14.576ZM45.4548 10.88C44.7081 10.88 44.0948 11.0987 43.6148 11.536C43.1348 11.9733 42.8361 12.5493 42.7188 13.264C42.7188 13.2747 42.7134 13.2853 42.7028 13.296C42.7028 13.296 42.7028 13.3013 42.7028 13.312C42.7028 13.3867 42.7508 13.424 42.8468 13.424H47.9828C48.1001 13.424 48.1428 13.3707 48.1108 13.264C47.9828 12.5173 47.7001 11.936 47.2628 11.52C46.8361 11.0933 46.2334 10.88 45.4548 10.88ZM62.9325 9.808C63.0925 9.79733 63.2312 9.85067 63.3485 9.968C63.4658 10.0747 63.5245 10.208 63.5245 10.368C63.5245 10.5387 63.4658 10.6773 63.3485 10.784C63.2312 10.8907 63.0925 10.9387 62.9325 10.928L62.4525 10.896C62.3565 10.896 62.2978 10.9333 62.2765 11.008L60.0365 17.776C59.9938 17.9253 59.9032 18.048 59.7645 18.144C59.6365 18.24 59.4925 18.288 59.3325 18.288C59.1725 18.288 59.0285 18.24 58.9005 18.144C58.7832 18.048 58.6978 17.9253 58.6445 17.776L56.8525 12C56.8418 11.936 56.8098 11.904 56.7565 11.904C56.7138 11.904 56.6818 11.936 56.6605 12L54.8525 17.76C54.8098 17.92 54.7192 18.048 54.5805 18.144C54.4525 18.24 54.3085 18.288 54.1485 18.288C53.9885 18.288 53.8445 18.24 53.7165 18.144C53.5885 18.048 53.4978 17.92 53.4445 17.76L51.2365 11.008C51.2152 10.9333 51.1565 10.896 51.0605 10.896L50.6125 10.928C50.4525 10.9387 50.3138 10.8907 50.1965 10.784C50.0792 10.6773 50.0205 10.5387 50.0205 10.368C50.0205 10.208 50.0792 10.0747 50.1965 9.968C50.3138 9.85067 50.4525 9.79733 50.6125 9.808C50.8898 9.82933 51.1298 9.85067 51.3325 9.872C51.5458 9.88267 51.7485 9.888 51.9405 9.888C52.1325 9.888 52.3298 9.88267 52.5325 9.872C52.7458 9.85067 52.9912 9.82933 53.2685 9.808C53.4285 9.79733 53.5672 9.85067 53.6845 9.968C53.8018 10.0747 53.8605 10.208 53.8605 10.368C53.8605 10.528 53.8072 10.6613 53.7005 10.768C53.5938 10.8747 53.4658 10.928 53.3165 10.928C53.1885 10.928 53.0552 10.9227 52.9165 10.912C52.7885 10.8907 52.6552 10.8747 52.5165 10.864C52.3992 10.864 52.3565 10.9173 52.3885 11.024L54.0845 16.272C54.1058 16.336 54.1378 16.368 54.1805 16.368C54.2232 16.368 54.2552 16.3307 54.2765 16.256L55.9725 10.576C56.0258 10.3947 56.1272 10.2507 56.2765 10.144C56.4258 10.0373 56.5858 9.984 56.7565 9.984C56.9378 9.984 57.0978 10.0373 57.2365 10.144C57.3858 10.2507 57.4872 10.3947 57.5405 10.576L59.2365 16.256C59.2578 16.3307 59.2898 16.368 59.3325 16.368C59.3858 16.368 59.4178 16.336 59.4285 16.272L61.1245 11.04C61.1245 11.0293 61.1245 11.0187 61.1245 11.008C61.1352 10.9973 61.1405 10.9867 61.1405 10.976C61.1405 10.912 61.1032 10.88 61.0285 10.88C60.8898 10.88 60.7512 10.8907 60.6125 10.912C60.4845 10.9227 60.3565 10.928 60.2285 10.928C60.0792 10.928 59.9512 10.8747 59.8445 10.768C59.7378 10.6613 59.6845 10.528 59.6845 10.368C59.6845 10.208 59.7432 10.0747 59.8605 9.968C59.9778 9.85067 60.1165 9.79733 60.2765 9.808C60.5538 9.82933 60.7938 9.85067 60.9965 9.872C61.2098 9.88267 61.4125 9.888 61.6045 9.888C61.7965 9.888 61.9992 9.88267 62.2125 9.872C62.4258 9.85067 62.6658 9.82933 62.9325 9.808ZM82.1984 17.168C82.3477 17.168 82.4757 17.2213 82.5824 17.328C82.689 17.4347 82.7424 17.568 82.7424 17.728C82.7424 17.888 82.6837 18.0213 82.5664 18.128C82.449 18.2453 82.3104 18.2987 82.1504 18.288C81.8197 18.256 81.5584 18.2293 81.3664 18.208C81.1744 18.1973 80.993 18.192 80.8224 18.192C80.6304 18.192 80.4384 18.1973 80.2464 18.208C80.065 18.2293 79.8144 18.256 79.4944 18.288C79.3344 18.2987 79.1957 18.2453 79.0784 18.128C78.961 18.0213 78.9024 17.888 78.9024 17.728C78.9024 17.568 78.9557 17.4347 79.0624 17.328C79.169 17.2213 79.297 17.168 79.4464 17.168C79.5424 17.168 79.6437 17.1733 79.7504 17.184C79.857 17.1947 79.9637 17.2053 80.0704 17.216H80.1024C80.177 17.216 80.2144 17.1733 80.2144 17.088V12.912C80.2144 12.4107 80.1397 12.0053 79.9904 11.696C79.8517 11.3867 79.6757 11.2 79.4624 11.136C79.345 11.0933 79.1904 11.072 78.9984 11.072C78.6997 11.072 78.3264 11.1787 77.8784 11.392C77.441 11.6053 76.913 12.032 76.2944 12.672C76.241 12.7253 76.2144 12.784 76.2144 12.848V17.088C76.2144 17.1733 76.2517 17.216 76.3264 17.216C76.4437 17.216 76.561 17.2107 76.6784 17.2C76.7957 17.1787 76.9077 17.168 77.0144 17.168C77.1637 17.168 77.2917 17.2213 77.3984 17.328C77.505 17.4347 77.5584 17.568 77.5584 17.728C77.5584 17.888 77.4997 18.0213 77.3824 18.128C77.265 18.2453 77.121 18.2987 76.9504 18.288C76.6197 18.256 76.3584 18.2293 76.1664 18.208C75.9744 18.1973 75.7984 18.192 75.6384 18.192C75.4357 18.192 75.2437 18.1973 75.0624 18.208C74.881 18.2293 74.6304 18.256 74.3104 18.288C74.1397 18.2987 73.9957 18.2453 73.8784 18.128C73.761 18.0213 73.7024 17.888 73.7024 17.728C73.7024 17.568 73.7557 17.4347 73.8624 17.328C73.969 17.2213 74.097 17.168 74.2464 17.168C74.3424 17.168 74.449 17.1733 74.5664 17.184C74.6837 17.1947 74.7957 17.2053 74.9024 17.216H74.9344C75.009 17.216 75.0464 17.1733 75.0464 17.088V12.912C75.0464 11.8667 74.8224 11.2693 74.3744 11.12C74.321 11.0987 74.2624 11.0827 74.1984 11.072C74.1344 11.0613 74.065 11.056 73.9904 11.056C73.6917 11.056 73.313 11.168 72.8544 11.392C72.3957 11.616 71.8517 12.0533 71.2224 12.704C71.169 12.7573 71.1424 12.816 71.1424 12.88V17.088C71.1424 17.1733 71.1797 17.216 71.2544 17.216C71.3717 17.216 71.4837 17.2107 71.5904 17.2C71.7077 17.1787 71.8197 17.168 71.9264 17.168C72.0757 17.168 72.2037 17.2213 72.3104 17.328C72.417 17.4347 72.4704 17.568 72.4704 17.728C72.4704 17.888 72.4117 18.0213 72.2944 18.128C72.177 18.2453 72.0384 18.2987 71.8784 18.288C71.5477 18.256 71.2864 18.2293 71.0944 18.208C70.9024 18.1973 70.721 18.192 70.5504 18.192C70.3584 18.192 70.1664 18.1973 69.9744 18.208C69.793 18.2293 69.5424 18.256 69.2224 18.288C69.0624 18.2987 68.9237 18.2453 68.8064 18.128C68.689 18.0213 68.6304 17.888 68.6304 17.728C68.6304 17.568 68.6837 17.4347 68.7904 17.328C68.897 17.2213 69.025 17.168 69.1744 17.168C69.2597 17.168 69.361 17.1733 69.4784 17.184C69.5957 17.1947 69.7077 17.2053 69.8144 17.216H69.8464C69.921 17.216 69.9584 17.1733 69.9584 17.088V11.04C69.9584 10.9547 69.921 10.912 69.8464 10.912C69.7397 10.912 69.6224 10.9173 69.4944 10.928C69.377 10.9387 69.2597 10.9547 69.1424 10.976C68.9717 10.9973 68.8224 10.9493 68.6944 10.832C68.5664 10.7147 68.5024 10.5707 68.5024 10.4C68.5024 10.2293 68.5664 10.0853 68.6944 9.968C68.8224 9.85067 68.9717 9.80267 69.1424 9.824C69.3877 9.86667 69.6597 9.89867 69.9584 9.92H70.5504C70.721 9.92 70.8597 9.97867 70.9664 10.096C71.0837 10.2027 71.1424 10.3413 71.1424 10.512V11.12C71.1424 11.184 71.1584 11.2213 71.1904 11.232C71.233 11.2427 71.2757 11.2267 71.3184 11.184C71.8197 10.7147 72.305 10.368 72.7744 10.144C73.2544 9.92 73.697 9.808 74.1024 9.808C74.433 9.808 74.7584 9.88267 75.0784 10.032C75.3237 10.1493 75.521 10.32 75.6704 10.544C75.8304 10.768 75.9477 11.0133 76.0224 11.28C76.0544 11.408 76.1184 11.424 76.2144 11.328C76.7477 10.7947 77.2597 10.4107 77.7504 10.176C78.241 9.93067 78.705 9.808 79.1424 9.808C79.5157 9.808 79.8624 9.888 80.1824 10.048C80.5237 10.208 80.7797 10.4587 80.9504 10.8C81.1317 11.1307 81.2544 11.488 81.3184 11.872C81.3824 12.256 81.4144 12.6027 81.4144 12.912V17.088C81.4144 17.1733 81.457 17.216 81.5424 17.216C81.6597 17.216 81.7717 17.2107 81.8784 17.2C81.985 17.1787 82.0917 17.168 82.1984 17.168ZM88.4638 18.288C87.8664 18.288 87.3064 18.1813 86.7838 17.968C86.2611 17.744 85.8024 17.44 85.4078 17.056C85.0131 16.6613 84.7038 16.208 84.4798 15.696C84.2558 15.184 84.1438 14.6347 84.1438 14.048C84.1438 13.4613 84.2558 12.912 84.4798 12.4C84.7038 11.888 85.0131 11.44 85.4078 11.056C85.8024 10.6613 86.2611 10.3573 86.7838 10.144C87.3064 9.92 87.8664 9.808 88.4638 9.808C89.0611 9.808 89.6158 9.92 90.1278 10.144C90.6504 10.3573 91.1091 10.6613 91.5038 11.056C91.8984 11.44 92.2078 11.888 92.4318 12.4C92.6558 12.912 92.7678 13.4613 92.7678 14.048C92.7678 14.6347 92.6558 15.184 92.4318 15.696C92.2078 16.208 91.8984 16.6613 91.5038 17.056C91.1091 17.44 90.6504 17.744 90.1278 17.968C89.6158 18.1813 89.0611 18.288 88.4638 18.288ZM88.4638 17.152C89.0718 17.152 89.6104 17.008 90.0798 16.72C90.5491 16.432 90.9171 16.0533 91.1838 15.584C91.4504 15.1147 91.5838 14.6027 91.5838 14.048C91.5838 13.4933 91.4451 12.9813 91.1678 12.512C90.9011 12.0427 90.5331 11.664 90.0638 11.376C89.5944 11.088 89.0611 10.944 88.4638 10.944C87.8451 10.944 87.3011 11.088 86.8318 11.376C86.3624 11.664 85.9944 12.0427 85.7278 12.512C85.4611 12.9813 85.3278 13.4933 85.3278 14.048C85.3278 14.6027 85.4611 15.1147 85.7278 15.584C86.0051 16.0533 86.3784 16.432 86.8478 16.72C87.3171 17.008 87.8558 17.152 88.4638 17.152ZM100.577 10.352C100.641 10.4907 100.673 10.624 100.673 10.752C100.673 10.9973 100.583 11.2053 100.401 11.376C100.22 11.5467 100.007 11.632 99.7614 11.632C99.58 11.632 99.4147 11.584 99.2654 11.488C99.1267 11.3813 99.0147 11.2533 98.9294 11.104C98.8974 11.0293 98.8387 10.992 98.7534 10.992C98.3694 11.024 98.0014 11.184 97.6494 11.472C97.308 11.7493 97.004 12.1013 96.7374 12.528C96.4707 12.9547 96.2574 13.4133 96.0974 13.904C96.076 13.9467 96.0654 14.0053 96.0654 14.08V17.088C96.0654 17.1733 96.1027 17.216 96.1774 17.216C96.3054 17.216 96.428 17.2107 96.5454 17.2C96.6734 17.1787 96.8014 17.168 96.9294 17.168C97.0787 17.168 97.2067 17.2213 97.3134 17.328C97.42 17.4347 97.4734 17.568 97.4734 17.728C97.4734 17.888 97.4147 18.0213 97.2974 18.128C97.18 18.2453 97.036 18.2987 96.8654 18.288C96.5347 18.256 96.268 18.2293 96.0654 18.208C95.8627 18.1973 95.6654 18.192 95.4734 18.192C95.2494 18.192 95.036 18.1973 94.8334 18.208C94.6414 18.2293 94.3907 18.256 94.0814 18.288C93.9107 18.2987 93.7667 18.2453 93.6494 18.128C93.532 18.0213 93.4734 17.888 93.4734 17.728C93.4734 17.568 93.5267 17.4347 93.6334 17.328C93.74 17.2213 93.868 17.168 94.0174 17.168C94.124 17.168 94.236 17.1733 94.3534 17.184C94.4814 17.1947 94.604 17.2053 94.7214 17.216H94.7534C94.828 17.216 94.8654 17.1733 94.8654 17.088V11.136C94.8654 11.0507 94.828 11.008 94.7534 11.008C94.5187 11.008 94.2947 11.024 94.0814 11.056C93.9 11.0667 93.74 11.0133 93.6014 10.896C93.4734 10.768 93.4094 10.6133 93.4094 10.432C93.4094 10.2507 93.4734 10.1013 93.6014 9.984C93.74 9.856 93.9 9.80267 94.0814 9.824C94.3054 9.84533 94.476 9.86133 94.5934 9.872C94.7214 9.88267 94.844 9.888 94.9614 9.888C95.0894 9.888 95.26 9.888 95.4734 9.888C95.644 9.888 95.7827 9.94667 95.8894 10.064C96.0067 10.1813 96.0654 10.32 96.0654 10.48V11.408C96.0654 11.472 96.0814 11.5147 96.1134 11.536C96.156 11.5467 96.1987 11.5253 96.2414 11.472C96.5614 11.0027 96.94 10.6133 97.3774 10.304C97.8254 9.99467 98.348 9.80267 98.9454 9.728C99.0094 9.71733 99.0734 9.712 99.1374 9.712C99.2014 9.70133 99.2654 9.696 99.3294 9.696C99.6067 9.696 99.8574 9.744 100.081 9.84C100.316 9.936 100.481 10.1067 100.577 10.352ZM108.587 14.576H102.987C102.881 14.576 102.838 14.6293 102.859 14.736C102.955 15.2053 103.142 15.6213 103.419 15.984C103.697 16.3467 104.038 16.6293 104.443 16.832C104.849 17.0347 105.286 17.136 105.755 17.136C106.161 17.136 106.545 17.0507 106.907 16.88C107.281 16.6987 107.601 16.4587 107.867 16.16C108.027 16 108.198 15.92 108.379 15.92C108.497 15.92 108.609 15.9573 108.715 16.032C108.886 16.1493 108.971 16.3093 108.971 16.512C108.971 16.6507 108.929 16.7627 108.843 16.848C108.459 17.296 107.995 17.648 107.451 17.904C106.918 18.1493 106.353 18.272 105.755 18.272C104.987 18.272 104.289 18.08 103.659 17.696C103.041 17.312 102.545 16.8 102.171 16.16C101.809 15.52 101.627 14.816 101.627 14.048C101.627 13.2693 101.798 12.56 102.139 11.92C102.481 11.28 102.95 10.768 103.547 10.384C104.155 10 104.838 9.808 105.595 9.808C106.342 9.808 106.993 9.968 107.547 10.288C108.102 10.608 108.545 11.056 108.875 11.632C109.217 12.1973 109.425 12.8587 109.499 13.616C109.531 13.8827 109.451 14.112 109.259 14.304C109.078 14.4853 108.854 14.576 108.587 14.576ZM105.595 10.88C104.849 10.88 104.235 11.0987 103.755 11.536C103.275 11.9733 102.977 12.5493 102.859 13.264C102.859 13.2747 102.854 13.2853 102.843 13.296C102.843 13.296 102.843 13.3013 102.843 13.312C102.843 13.3867 102.891 13.424 102.987 13.424H108.123C108.241 13.424 108.283 13.3707 108.251 13.264C108.123 12.5173 107.841 11.936 107.403 11.52C106.977 11.0933 106.374 10.88 105.595 10.88Z" fill="#814F40"/>
<path d="M1 12.5C0.723858 12.5 0.5 12.7239 0.5 13C0.5 13.2761 0.723858 13.5 1 13.5L1 12.5ZM16.3536 13.3536C16.5488 13.1583 16.5488 12.8417 16.3536 12.6464L13.1716 9.46447C12.9763 9.2692 12.6597 9.2692 12.4645 9.46447C12.2692 9.65973 12.2692 9.97631 12.4645 10.1716L15.2929 13L12.4645 15.8284C12.2692 16.0237 12.2692 16.3403 12.4645 16.5355C12.6597 16.7308 12.9763 16.7308 13.1716 16.5355L16.3536 13.3536ZM1 13.5L16 13.5L16 12.5L1 12.5L1 13.5Z" fill="#814F40"/>
<path d="M10 7L16 13" stroke="#814F40" stroke-linecap="round"/>
<path d="M10 19L16 13" stroke="#814F40" stroke-linecap="round"/>
</svg>
