<svg width="121" height="23" viewBox="0 0 121 23" fill="none" xmlns="http://www.w3.org/2000/svg">
<path d="M36.344 11.728C36.952 11.888 37.448 12.144 37.832 12.496C38.2267 12.8373 38.52 13.2267 38.712 13.664C38.904 14.1013 39 14.5493 39 15.008C39 15.552 38.8667 16.0747 38.6 16.576C38.344 17.0667 37.9653 17.4667 37.464 17.776C36.9627 18.0853 36.3387 18.24 35.592 18.24C35.1333 18.24 34.696 18.1707 34.28 18.032C33.8747 17.904 33.512 17.6693 33.192 17.328C33.096 17.2107 33.048 17.088 33.048 16.96C33.048 16.7787 33.128 16.6187 33.288 16.48C33.4053 16.384 33.5333 16.336 33.672 16.336C33.832 16.336 33.9813 16.3893 34.12 16.496C34.3547 16.688 34.6 16.832 34.856 16.928C35.112 17.0133 35.368 17.056 35.624 17.056C36.008 17.056 36.3653 16.9707 36.696 16.8C37.0373 16.6187 37.3093 16.384 37.512 16.096C37.7147 15.7973 37.816 15.472 37.816 15.12C37.816 15.0667 37.816 15.0187 37.816 14.976C37.816 14.9333 37.8107 14.8907 37.8 14.848C37.672 14.1333 37.3413 13.5947 36.808 13.232C36.2853 12.8587 35.6347 12.672 34.856 12.672C34.3973 12.672 33.9013 12.7413 33.368 12.88C32.8453 13.0187 32.3067 13.2267 31.752 13.504C31.6773 13.536 31.64 13.5893 31.64 13.664C31.6507 14.1973 31.6453 14.7307 31.624 15.264C31.6027 15.7973 31.5653 16.32 31.512 16.832C31.4587 17.2373 31.3307 17.5733 31.128 17.84C30.936 18.096 30.6267 18.224 30.2 18.224C30.0613 18.224 29.896 18.2027 29.704 18.16C29.5227 18.128 29.3253 18.0693 29.112 17.984C28.6107 17.7707 28.1787 17.5307 27.816 17.264C27.464 16.9867 27.288 16.656 27.288 16.272C27.288 16.016 27.384 15.7333 27.576 15.424C27.768 15.1147 28.0773 14.7627 28.504 14.368C28.8027 14.1013 29.1013 13.8507 29.4 13.616C29.7093 13.3813 30.024 13.168 30.344 12.976C30.408 12.9227 30.44 12.864 30.44 12.8C30.4293 12.3413 30.408 11.8987 30.376 11.472C30.3547 11.0453 30.328 10.6187 30.296 10.192C30.2853 10.1067 30.232 10.0693 30.136 10.08C29.688 10.1653 29.2347 10.2347 28.776 10.288C28.3173 10.3413 27.8533 10.3787 27.384 10.4C27.2133 10.4107 27.0693 10.3573 26.952 10.24C26.8453 10.112 26.792 9.96267 26.792 9.792C26.792 9.64267 26.8453 9.51467 26.952 9.408C27.0693 9.29067 27.208 9.22667 27.368 9.216C27.8267 9.19467 28.2747 9.15733 28.712 9.104C29.1493 9.05067 29.5813 8.98667 30.008 8.912C30.1147 8.89067 30.1573 8.832 30.136 8.736C30.008 7.81867 29.8533 7.024 29.672 6.352C29.6613 6.32 29.6507 6.29333 29.64 6.272C29.64 6.24 29.64 6.21333 29.64 6.192C29.64 6.032 29.6933 5.89867 29.8 5.792C29.9173 5.67467 30.0613 5.616 30.232 5.616C30.3707 5.616 30.4933 5.65867 30.6 5.744C30.7173 5.81867 30.792 5.93067 30.824 6.08C30.984 6.73067 31.1387 7.52 31.288 8.448C31.288 8.55467 31.3413 8.59733 31.448 8.576C31.704 8.50133 31.9547 8.42667 32.2 8.352C32.4453 8.26667 32.68 8.176 32.904 8.08C32.9893 8.048 33.064 8.032 33.128 8.032C33.4053 8.032 33.592 8.14933 33.688 8.384C33.7307 8.45867 33.752 8.544 33.752 8.64C33.752 8.896 33.6347 9.06667 33.4 9.152C33.112 9.26933 32.8133 9.38133 32.504 9.488C32.2053 9.584 31.8907 9.67467 31.56 9.76C31.464 9.78133 31.4267 9.83467 31.448 9.92C31.48 10.272 31.5067 10.6347 31.528 11.008C31.56 11.3707 31.5867 11.7387 31.608 12.112C31.608 12.2293 31.672 12.2613 31.8 12.208C32.312 11.9947 32.824 11.8293 33.336 11.712C33.8587 11.5947 34.3653 11.536 34.856 11.536C35.368 11.536 35.864 11.6 36.344 11.728ZM39.416 10.016C39.576 10.144 39.656 10.304 39.656 10.496C39.656 10.6347 39.6133 10.7627 39.528 10.88C39.4107 11.0293 39.256 11.104 39.064 11.104C38.936 11.104 38.8187 11.0667 38.712 10.992C38.328 10.7147 37.88 10.4853 37.368 10.304C36.856 10.112 36.3013 9.98933 35.704 9.936C35.5547 9.92533 35.4213 9.86667 35.304 9.76C35.1973 9.64267 35.144 9.504 35.144 9.344C35.144 9.16267 35.208 9.01333 35.336 8.896C35.464 8.77867 35.6133 8.73067 35.784 8.752C36.4667 8.79467 37.1173 8.928 37.736 9.152C38.3653 9.36533 38.9253 9.65333 39.416 10.016ZM28.888 16.592C29.2293 16.7627 29.4907 16.896 29.672 16.992C29.864 17.0773 30.008 17.12 30.104 17.12C30.2107 17.12 30.2747 17.0667 30.296 16.96C30.328 16.8533 30.3493 16.6987 30.36 16.496C30.3813 16.2933 30.3973 16.0053 30.408 15.632C30.4187 15.2587 30.4293 14.8907 30.44 14.528C30.44 14.464 30.424 14.4213 30.392 14.4C30.36 14.3787 30.3173 14.3893 30.264 14.432C29.72 14.816 29.2667 15.1947 28.904 15.568C28.6373 15.8453 28.504 16.0587 28.504 16.208C28.504 16.2933 28.5413 16.368 28.616 16.432C28.6907 16.4853 28.7813 16.5387 28.888 16.592ZM46.376 11.36C46.376 11.424 46.408 11.456 46.472 11.456H48.648C48.808 11.456 48.9413 11.5147 49.048 11.632C49.1653 11.7493 49.224 11.888 49.224 12.048C49.224 12.208 49.1653 12.3467 49.048 12.464C48.9413 12.5813 48.808 12.64 48.648 12.64H46.376C46.3333 12.64 46.3013 12.6667 46.28 12.72L46.168 13.232C46.1573 13.2853 46.1733 13.328 46.216 13.36C46.4827 13.5947 46.7653 13.8773 47.064 14.208C47.3627 14.528 47.6507 14.864 47.928 15.216C48.216 15.568 48.456 15.8987 48.648 16.208C48.712 16.304 48.744 16.4107 48.744 16.528C48.744 16.7733 48.6373 16.96 48.424 17.088C48.328 17.152 48.2267 17.184 48.12 17.184C47.9067 17.184 47.7413 17.0933 47.624 16.912C47.3573 16.464 47.0533 16.0427 46.712 15.648C46.3813 15.2533 46.072 14.912 45.784 14.624C45.7307 14.5707 45.688 14.5813 45.656 14.656C45.3253 15.3493 44.9307 15.984 44.472 16.56C44.024 17.136 43.576 17.6267 43.128 18.032C43.0427 18.1173 42.9253 18.16 42.776 18.16C42.5733 18.16 42.4133 18.08 42.296 17.92C42.2107 17.8027 42.168 17.68 42.168 17.552C42.168 17.36 42.248 17.184 42.408 17.024C43.1013 16.4053 43.672 15.7173 44.12 14.96C44.568 14.2027 44.8773 13.4667 45.048 12.752V12.72C45.048 12.6667 45.016 12.64 44.952 12.64H42.824C42.664 12.64 42.5253 12.5813 42.408 12.464C42.3013 12.3467 42.248 12.208 42.248 12.048C42.248 11.888 42.3013 11.7493 42.408 11.632C42.5253 11.5147 42.664 11.456 42.824 11.456H45.08C45.144 11.456 45.176 11.424 45.176 11.36V8.608C45.176 8.544 45.144 8.512 45.08 8.512H44.088C44.024 8.512 43.9867 8.53333 43.976 8.576C43.8373 8.8 43.688 9.024 43.528 9.248C43.3787 9.46133 43.208 9.67467 43.016 9.888C42.92 9.99467 42.7973 10.048 42.648 10.048C42.4987 10.048 42.3653 9.98933 42.248 9.872C42.1413 9.75467 42.088 9.616 42.088 9.456C42.088 9.296 42.136 9.152 42.232 9.024C42.7013 8.45867 43.064 7.872 43.32 7.264C43.5867 6.64533 43.784 6.05333 43.912 5.488C43.944 5.33867 44.0133 5.22133 44.12 5.136C44.2267 5.05067 44.344 5.008 44.472 5.008C44.6747 5.008 44.8293 5.088 44.936 5.248C45.0533 5.39733 45.096 5.56267 45.064 5.744C45.0213 5.95733 44.9627 6.192 44.888 6.448C44.8133 6.69333 44.7227 6.95467 44.616 7.232C44.584 7.30667 44.6053 7.344 44.68 7.344H48.088C48.248 7.344 48.3813 7.40267 48.488 7.52C48.6053 7.63733 48.664 7.776 48.664 7.936C48.664 8.096 48.6053 8.23467 48.488 8.352C48.3813 8.45867 48.248 8.512 48.088 8.512H46.472C46.408 8.512 46.376 8.544 46.376 8.608V11.36ZM50.44 6.432H54.264C54.5413 6.432 54.7707 6.528 54.952 6.72C55.1333 6.90133 55.224 7.12533 55.224 7.392V17.024C55.224 17.2907 55.1333 17.52 54.952 17.712C54.7707 17.8933 54.5413 17.984 54.264 17.984H50.44C50.1733 17.984 49.944 17.8933 49.752 17.712C49.5707 17.52 49.48 17.2907 49.48 17.024V7.392C49.48 7.12533 49.5707 6.90133 49.752 6.72C49.944 6.528 50.1733 6.432 50.44 6.432ZM50.68 16.704C50.68 16.768 50.712 16.8 50.776 16.8H53.928C53.992 16.8 54.024 16.768 54.024 16.704V7.712C54.024 7.648 53.992 7.616 53.928 7.616H50.776C50.712 7.616 50.68 7.648 50.68 7.712V16.704ZM66.232 7.904C65.3893 7.41333 64.376 7.12 63.192 7.024C63.0427 7.00267 62.9147 6.93867 62.808 6.832C62.7013 6.72533 62.648 6.59733 62.648 6.448C62.648 6.256 62.7173 6.096 62.856 5.968C62.9947 5.82933 63.16 5.77067 63.352 5.792C63.9813 5.856 64.584 5.97333 65.16 6.144C65.736 6.304 66.2533 6.512 66.712 6.768C66.9467 6.90667 67.064 7.10933 67.064 7.376C67.064 7.568 67.0107 7.71733 66.904 7.824C66.7973 7.93067 66.6693 7.984 66.52 7.984C66.4347 7.984 66.3387 7.95733 66.232 7.904ZM63.944 18.352C63.784 18.3413 63.6507 18.2773 63.544 18.16C63.4373 18.0427 63.384 17.9093 63.384 17.76C63.384 17.5787 63.4533 17.4293 63.592 17.312C63.7307 17.184 63.8853 17.1307 64.056 17.152C64.2053 17.1627 64.3547 17.1733 64.504 17.184C64.6533 17.184 64.7973 17.184 64.936 17.184C65.8533 17.184 66.6053 17.0613 67.192 16.816C67.7893 16.5707 68.232 16.2507 68.52 15.856C68.808 15.4613 68.952 15.0453 68.952 14.608C68.952 14.384 68.92 14.1707 68.856 13.968C68.7173 13.4667 68.4453 13.0933 68.04 12.848C67.6347 12.592 67.16 12.464 66.616 12.464C65.912 12.464 65.1493 12.6827 64.328 13.12C63.5173 13.5573 62.776 14.2347 62.104 15.152C61.9333 15.3973 61.6987 15.52 61.4 15.52C61.1653 15.52 60.968 15.44 60.808 15.28C60.6587 15.1093 60.584 14.9227 60.584 14.72C60.5947 14.0267 60.648 13.312 60.744 12.576C60.8507 11.8293 60.9893 11.1147 61.16 10.432C61.3413 9.74933 61.544 9.14667 61.768 8.624C61.8747 8.4 62.056 8.288 62.312 8.288C62.4933 8.288 62.6373 8.352 62.744 8.48C62.8613 8.608 62.92 8.752 62.92 8.912C62.92 8.98667 62.904 9.06667 62.872 9.152C62.7227 9.52533 62.568 9.97333 62.408 10.496C62.248 11.008 62.1093 11.536 61.992 12.08C61.8853 12.6133 61.8107 13.0987 61.768 13.536V13.552C61.768 13.6053 61.7893 13.6427 61.832 13.664C61.8747 13.6747 61.9173 13.6533 61.96 13.6C62.696 12.832 63.4747 12.272 64.296 11.92C65.1173 11.568 65.9013 11.392 66.648 11.392C67.5013 11.392 68.2427 11.6053 68.872 12.032C69.5013 12.4587 69.896 13.0507 70.056 13.808C70.0773 13.936 70.0933 14.064 70.104 14.192C70.1253 14.32 70.136 14.4427 70.136 14.56C70.136 15.04 70.0347 15.5093 69.832 15.968C69.6293 16.416 69.3093 16.8213 68.872 17.184C68.4347 17.5467 67.864 17.8347 67.16 18.048C66.456 18.2613 65.608 18.368 64.616 18.368C64.5093 18.368 64.3973 18.368 64.28 18.368C64.1733 18.368 64.0613 18.3627 63.944 18.352ZM86.696 9.104C86.8453 9.11467 86.9733 9.17867 87.08 9.296C87.1867 9.40267 87.24 9.53067 87.24 9.68C87.24 9.85067 87.1813 9.99467 87.064 10.112C86.9467 10.2293 86.7973 10.288 86.616 10.288C86.232 10.2773 85.832 10.2827 85.416 10.304C85.0107 10.3147 84.5947 10.336 84.168 10.368C84.072 10.3787 84.024 10.432 84.024 10.528C84.0453 10.976 84.056 11.3813 84.056 11.744C84.0667 12.1067 84.072 12.3733 84.072 12.544C84.072 13.2587 83.912 13.8347 83.592 14.272C83.272 14.7093 82.7493 14.928 82.024 14.928C81.6613 14.928 81.2667 14.8747 80.84 14.768C80.5627 14.6827 80.424 14.496 80.424 14.208C80.424 14.0267 80.488 13.8773 80.616 13.76C80.744 13.6427 80.8933 13.584 81.064 13.584C81.0853 13.584 81.112 13.584 81.144 13.584C81.176 13.584 81.2027 13.5893 81.224 13.6C81.5227 13.6747 81.784 13.712 82.008 13.712C82.392 13.712 82.6267 13.6 82.712 13.376C82.808 13.1413 82.856 12.8533 82.856 12.512C82.856 12.352 82.8507 12.1067 82.84 11.776C82.84 11.4453 82.8293 11.072 82.808 10.656C82.808 10.5387 82.76 10.4907 82.664 10.512C82.0773 10.576 81.48 10.6453 80.872 10.72C80.2747 10.784 79.6667 10.848 79.048 10.912C78.952 10.9227 78.904 10.976 78.904 11.072V14.928C78.904 15.4613 78.952 15.8827 79.048 16.192C79.1547 16.5013 79.3573 16.72 79.656 16.848C79.9547 16.976 80.3867 17.04 80.952 17.04C81.4107 17.04 81.9707 17.008 82.632 16.944C83.2933 16.88 84.0827 16.7947 85 16.688C85.1813 16.6667 85.336 16.7147 85.464 16.832C85.592 16.9493 85.656 17.0987 85.656 17.28C85.656 17.4507 85.5973 17.6 85.48 17.728C85.3733 17.8453 85.24 17.9147 85.08 17.936C84.184 18.0213 83.4 18.0907 82.728 18.144C82.056 18.208 81.4693 18.24 80.968 18.24C80.4133 18.24 79.9493 18.192 79.576 18.096C79.2027 18.0107 78.8933 17.8667 78.648 17.664C78.2213 17.2907 77.9547 16.832 77.848 16.288C77.752 15.744 77.704 15.1307 77.704 14.448V11.168C77.704 11.0613 77.656 11.0187 77.56 11.04C77.176 11.0613 76.792 11.0827 76.408 11.104C76.0347 11.1147 75.6613 11.1147 75.288 11.104C75.1387 11.0933 75.0053 11.0347 74.888 10.928C74.7813 10.8107 74.728 10.6773 74.728 10.528C74.728 10.3573 74.7867 10.2133 74.904 10.096C75.0213 9.97867 75.1653 9.92 75.336 9.92C75.72 9.93067 76.0933 9.93067 76.456 9.92C76.8293 9.89867 77.1973 9.88267 77.56 9.872C77.656 9.85067 77.704 9.79733 77.704 9.712V6.912C77.704 6.74133 77.7627 6.59733 77.88 6.48C77.9973 6.36267 78.136 6.304 78.296 6.304C78.4667 6.304 78.6107 6.36267 78.728 6.48C78.8453 6.59733 78.904 6.74133 78.904 6.912V9.616C78.904 9.712 78.952 9.75467 79.048 9.744C79.6773 9.68 80.2853 9.616 80.872 9.552C81.4693 9.47733 82.0613 9.408 82.648 9.344C82.744 9.32267 82.792 9.26933 82.792 9.184C82.7813 8.62933 82.7653 8.096 82.744 7.584C82.7227 7.072 82.7067 6.65067 82.696 6.32C82.696 6.13867 82.7547 5.98933 82.872 5.872C83 5.75467 83.1493 5.696 83.32 5.696C83.48 5.696 83.6187 5.75467 83.736 5.872C83.8533 5.98933 83.912 6.128 83.912 6.288L83.992 9.056C83.992 9.152 84.04 9.19467 84.136 9.184C84.5627 9.152 84.9893 9.13067 85.416 9.12C85.8427 9.09867 86.2693 9.09333 86.696 9.104ZM102.872 12.624H91.128C90.9573 12.624 90.8133 12.5653 90.696 12.448C90.5787 12.3307 90.52 12.1867 90.52 12.016C90.52 11.8453 90.5787 11.7013 90.696 11.584C90.8133 11.4667 90.9573 11.408 91.128 11.408H102.872C103.043 11.408 103.187 11.4667 103.304 11.584C103.421 11.7013 103.48 11.8453 103.48 12.016C103.48 12.1867 103.421 12.3307 103.304 12.448C103.187 12.5653 103.043 12.624 102.872 12.624ZM112.648 8.16C112.648 7.95733 112.749 7.77067 112.952 7.6C113.4 7.29067 113.763 6.944 114.04 6.56C114.328 6.16533 114.547 5.78667 114.696 5.424C114.824 5.136 115.032 4.992 115.32 4.992C115.491 4.992 115.629 5.05067 115.736 5.168C115.853 5.28533 115.912 5.41867 115.912 5.568C115.912 5.61067 115.901 5.664 115.88 5.728C115.848 5.81333 115.816 5.89867 115.784 5.984C115.752 6.05867 115.715 6.13867 115.672 6.224C115.64 6.29867 115.661 6.336 115.736 6.336H119.144C119.315 6.336 119.459 6.39467 119.576 6.512C119.693 6.62933 119.752 6.768 119.752 6.928C119.752 7.09867 119.693 7.24267 119.576 7.36C119.459 7.47733 119.315 7.536 119.144 7.536H114.856C114.813 7.536 114.776 7.552 114.744 7.584C114.36 8.032 113.939 8.4 113.48 8.688C113.395 8.74133 113.309 8.768 113.224 8.768C113.075 8.768 112.941 8.70933 112.824 8.592C112.707 8.47467 112.648 8.33067 112.648 8.16ZM112.504 10.816H107.736C107.491 10.816 107.283 10.7307 107.112 10.56C106.941 10.3893 106.856 10.1813 106.856 9.936V6.256C106.856 6.01067 106.941 5.80267 107.112 5.632C107.283 5.46133 107.491 5.376 107.736 5.376H112.504C112.643 5.376 112.76 5.424 112.856 5.52C112.952 5.616 113 5.73867 113 5.888C113 6.02667 112.952 6.144 112.856 6.24C112.76 6.336 112.643 6.384 112.504 6.384H110.712C110.648 6.384 110.616 6.416 110.616 6.48V6.912C110.616 6.976 110.648 7.008 110.712 7.008H111.544C111.789 7.008 111.997 7.09333 112.168 7.264C112.339 7.43467 112.424 7.64267 112.424 7.888V8.32C112.424 8.55467 112.339 8.76267 112.168 8.944C111.997 9.11467 111.789 9.2 111.544 9.2H110.712C110.648 9.2 110.616 9.232 110.616 9.296V9.728C110.616 9.792 110.648 9.824 110.712 9.824H112.504C112.643 9.824 112.76 9.872 112.856 9.968C112.952 10.064 113 10.1813 113 10.32C113 10.4587 112.952 10.576 112.856 10.672C112.76 10.768 112.643 10.816 112.504 10.816ZM109.384 7.008C109.448 7.008 109.48 6.976 109.48 6.912V6.48C109.48 6.416 109.448 6.384 109.384 6.384H108.104C108.04 6.384 108.008 6.416 108.008 6.48V6.912C108.008 6.976 108.04 7.008 108.104 7.008H109.384ZM108.008 8.24C108.008 8.304 108.04 8.336 108.104 8.336H111.192C111.256 8.336 111.288 8.304 111.288 8.24V7.968C111.288 7.904 111.256 7.872 111.192 7.872H108.104C108.04 7.872 108.008 7.904 108.008 7.968V8.24ZM108.008 9.728C108.008 9.792 108.04 9.824 108.104 9.824H109.384C109.448 9.824 109.48 9.792 109.48 9.728V9.296C109.48 9.232 109.448 9.2 109.384 9.2H108.104C108.04 9.2 108.008 9.232 108.008 9.296V9.728ZM114.456 9.344H118.488C118.648 9.344 118.787 9.40267 118.904 9.52C119.021 9.63733 119.08 9.776 119.08 9.936C119.08 10.1067 119.021 10.2507 118.904 10.368C118.787 10.4747 118.648 10.528 118.488 10.528H114.456C114.296 10.528 114.157 10.4747 114.04 10.368C113.933 10.2507 113.88 10.1067 113.88 9.936C113.88 9.776 113.933 9.63733 114.04 9.52C114.157 9.40267 114.296 9.344 114.456 9.344ZM119.848 17.088C119.976 17.216 120.04 17.3653 120.04 17.536C120.04 17.696 119.987 17.8293 119.88 17.936C119.496 18.3307 119.08 18.576 118.632 18.672C118.195 18.768 117.683 18.816 117.096 18.816H115.56C115.251 18.816 114.963 18.7787 114.696 18.704C114.429 18.6293 114.211 18.4853 114.04 18.272C113.88 18.0693 113.8 17.776 113.8 17.392V16.88C113.8 16.816 113.768 16.784 113.704 16.784H112.568C112.515 16.784 112.472 16.8053 112.44 16.848C112.056 17.328 111.549 17.712 110.92 18C110.301 18.2773 109.635 18.48 108.92 18.608C108.205 18.736 107.507 18.816 106.824 18.848C106.664 18.8587 106.525 18.8053 106.408 18.688C106.301 18.5813 106.248 18.448 106.248 18.288C106.248 18.128 106.301 17.9893 106.408 17.872C106.515 17.7547 106.653 17.6907 106.824 17.68C108.445 17.5947 109.683 17.3333 110.536 16.896C110.579 16.8747 110.595 16.8533 110.584 16.832C110.584 16.8 110.557 16.784 110.504 16.784H109.208C108.973 16.784 108.765 16.6987 108.584 16.528C108.413 16.3467 108.328 16.1387 108.328 15.904V12.112C108.328 11.8667 108.413 11.6587 108.584 11.488C108.765 11.3173 108.973 11.232 109.208 11.232H116.792C117.037 11.232 117.245 11.3173 117.416 11.488C117.587 11.6587 117.672 11.8667 117.672 12.112V15.904C117.672 16.1387 117.587 16.3467 117.416 16.528C117.245 16.6987 117.037 16.784 116.792 16.784H115.08C115.016 16.784 114.984 16.816 114.984 16.88V17.392C114.984 17.5307 115.027 17.616 115.112 17.648C115.197 17.6693 115.389 17.68 115.688 17.68H117.096C117.651 17.68 118.067 17.6373 118.344 17.552C118.632 17.4667 118.877 17.3227 119.08 17.12C119.197 17.0027 119.336 16.944 119.496 16.944C119.635 16.944 119.752 16.992 119.848 17.088ZM116.376 12.8C116.44 12.8 116.472 12.768 116.472 12.704V12.416C116.472 12.352 116.44 12.32 116.376 12.32H109.624C109.56 12.32 109.528 12.352 109.528 12.416V12.704C109.528 12.768 109.56 12.8 109.624 12.8H116.376ZM109.528 14.128C109.528 14.192 109.56 14.224 109.624 14.224H116.376C116.44 14.224 116.472 14.192 116.472 14.128V13.84C116.472 13.776 116.44 13.744 116.376 13.744H109.624C109.56 13.744 109.528 13.776 109.528 13.84V14.128ZM116.472 15.28C116.472 15.216 116.44 15.184 116.376 15.184H109.624C109.56 15.184 109.528 15.216 109.528 15.28V15.6C109.528 15.664 109.56 15.696 109.624 15.696H116.376C116.44 15.696 116.472 15.664 116.472 15.6V15.28Z" fill="#814F40"/>
<path d="M1 11.5C0.723858 11.5 0.5 11.7239 0.5 12C0.5 12.2761 0.723858 12.5 1 12.5L1 11.5ZM16.3536 12.3536C16.5488 12.1583 16.5488 11.8417 16.3536 11.6464L13.1716 8.46447C12.9763 8.2692 12.6597 8.2692 12.4645 8.46447C12.2692 8.65973 12.2692 8.97631 12.4645 9.17157L15.2929 12L12.4645 14.8284C12.2692 15.0237 12.2692 15.3403 12.4645 15.5355C12.6597 15.7308 12.9763 15.7308 13.1716 15.5355L16.3536 12.3536ZM1 12.5L16 12.5L16 11.5L1 11.5L1 12.5Z" fill="#814F40"/>
<path d="M10 6L16 12" stroke="#814F40" stroke-linecap="round"/>
<path d="M10 18L16 12" stroke="#814F40" stroke-linecap="round"/>
</svg>
